<svg xmlns="http://www.w3.org/2000/svg" viewBox="0 0 581.29 47.73"><defs><style>.cls-1{fill:#fff;}</style></defs><g id="Capa_2" data-name="Capa 2"><g id="Capa_3" data-name="Capa 3"><path class="cls-1" d="M293.33,30h7.59l-.49,3a9.52,9.52,0,0,1-2.35,4.82,6.58,6.58,0,0,1-5.13,2,5,5,0,0,1-4.35-1.94,8.83,8.83,0,0,1-1.39-5.23c0-.82.05-1.73.15-2.75s.22-1.88.34-2.62l1.05-6.31a21.26,21.26,0,0,1,2.81-8A6.18,6.18,0,0,1,297,10a5.21,5.21,0,0,1,2.62.59,4.84,4.84,0,0,1,1.67,1.54,6.3,6.3,0,0,1,.93,2.26,22.7,22.7,0,0,1,.4,2.66l8.84-1.73a17.33,17.33,0,0,0-1.11-5.13,12.1,12.1,0,0,0-2.6-4,11.26,11.26,0,0,0-4.14-2.63,16.69,16.69,0,0,0-5.8-.92,16.87,16.87,0,0,0-8.69,2.19,18.7,18.7,0,0,0-6.24,6,28.77,28.77,0,0,0-3.77,9.11,49,49,0,0,0-1.26,11.4q0,7.85,3.06,11.86a9.92,9.92,0,0,0,8.37,4,8.69,8.69,0,0,0,3.24-.55A8.31,8.31,0,0,0,295,45.11a11.67,11.67,0,0,0,2-2.22c.57-.84,1.13-1.74,1.66-2.69h.57l-1.05,6.24h8.08l3.84-23H294.38Z"/><path class="cls-1" d="M559.79,33.9a54.47,54.47,0,0,0,11-1.33,21,21,0,0,0,6.54-2.65,8.13,8.13,0,0,0,3.12-3.5,9.73,9.73,0,0,0,.81-3.83,7.71,7.71,0,0,0-.93-3.86A8,8,0,0,0,577.83,16a11.9,11.9,0,0,0-3.74-1.64,17.93,17.93,0,0,0-4.54-.56,20.26,20.26,0,0,0-7.72,1.42,16.77,16.77,0,0,0-5.91,4,18.51,18.51,0,0,0-3.8,6.24,23.15,23.15,0,0,0-1.36,8.09q0,6.36,3.4,10t10.51,3.61A19,19,0,0,0,570,46.5a15.68,15.68,0,0,0,4.21-1.88,17.74,17.74,0,0,0,3.3-2.78,30.57,30.57,0,0,0,2.69-3.37l-5.62-3.64a28.09,28.09,0,0,1-2.26,2.62,12,12,0,0,1-2,1.67,6.64,6.64,0,0,1-2.1.9,10.94,10.94,0,0,1-2.38.25c-2.18,0-3.75-.46-4.69-1.36a5.23,5.23,0,0,1-1.43-4v-.46A4.14,4.14,0,0,1,559.79,33.9Zm.8-6q.87-4.14,3-5.91a7.62,7.62,0,0,1,5.06-1.76c2.64,0,4,1.08,4,3.22a5,5,0,0,1-.31,1.6,3.35,3.35,0,0,1-1.51,1.61,12.82,12.82,0,0,1-3.65,1.3,42.45,42.45,0,0,1-6.71.8Z"/><path class="cls-1" d="M541.63,39.4l2.47-12.33c.21-.94.39-1.87.54-2.8a20.2,20.2,0,0,0,.2-2.81A7.65,7.65,0,0,0,543,15.93a6.67,6.67,0,0,0-5.41-2.11,9.34,9.34,0,0,0-6.49,2.23,17.49,17.49,0,0,0-4.22,5.56h-.43a8.08,8.08,0,0,0-2-5.68c-1.27-1.46-3.06-2.11-5.5-2.11A9,9,0,0,0,512.72,16a16.73,16.73,0,0,0-4.26,5.65h-.37l1.42-7H500.9l-6.45,31.88h8.63l3.34-16.67a14.34,14.34,0,0,1,3-6.31,10,10,0,0,1,2.31-2.13,5.09,5.09,0,0,1,2.88-.83,2.58,2.58,0,0,1,2.25.9,4.07,4.07,0,0,1,.65,2.43,11.47,11.47,0,0,1-.13,1.6c-.08.58-.18,1.16-.31,1.73l-3.9,19.28h8.68l3.38-16.67a14.05,14.05,0,0,1,1.11-3.4,12.86,12.86,0,0,1,1.86-3,10.64,10.64,0,0,1,2.34-2.07,4.9,4.9,0,0,1,2.72-.83,2.35,2.35,0,0,1,2.07.9,3.86,3.86,0,0,1,.74,2.32,12.26,12.26,0,0,1-.15,1.71c-.1.58-3,14.59-3,14.59,0,.17-.08.4-.12.71a8,8,0,0,0-.06,1,4.52,4.52,0,0,0,1.35,3.44,5.44,5.44,0,0,0,3.83,1.26h5.63l1.41-7Z"/><polygon class="cls-1" points="410.28 0.73 402.64 46.44 411.64 46.44 412.75 39.84 419.3 0.73 410.28 0.73"/><polygon class="cls-1" points="392.56 0.73 384.91 46.44 393.93 46.44 395.03 39.84 401.58 0.73 392.56 0.73"/><path class="cls-1" d="M373.67,15.48l-4,23.8-.25,1.47-1,5.69h-6c-2.17-1.9-2.12-5-1.84-7.16,0-.23.06-.44.09-.64.11-.65.24-1.62.49-2.9l2.25-13.22h-9.29l1.19-7Z"/><path class="cls-1" d="M370.45,10.32a5.66,5.66,0,0,1-3.92-1.08,3.57,3.57,0,0,1-1.15-2.69c0-.21,0-.48.07-.84s.12-.89.24-1.63a4.58,4.58,0,0,1,1.67-3,6.75,6.75,0,0,1,4.14-1c1.86,0,3.16.36,3.92,1.08a3.53,3.53,0,0,1,1.15,2.69,7.62,7.62,0,0,1-.06.83c-.05.35-.13.9-.25,1.64a4.58,4.58,0,0,1-1.67,3A6.73,6.73,0,0,1,370.45,10.32Z"/><polygon class="cls-1" points="378.9 39.28 377.69 46.45 350.14 46.45 351.35 39.28 378.9 39.28"/><path class="cls-1" d="M449.33,39.79l2.35-14q.85-6.06-2.32-9t-9.58-3a20.37,20.37,0,0,0-8.9,1.76A15,15,0,0,0,425.23,20l4.23,4.45A13.74,13.74,0,0,1,433,21.56a9.51,9.51,0,0,1,4.79-1.11c2.06,0,3.46.49,4.19,1.45s.59,2.41.32,4.3L442,27.81h-5q-7,0-10.94,2.41a10.41,10.41,0,0,0-5.23,7.36,8,8,0,0,0,2.12,7.06c1.61,1.67,4,2.5,7.06,2.5a12.86,12.86,0,0,0,6.5-1.6,9.57,9.57,0,0,0,4.13-4.76h.31A5.25,5.25,0,0,0,442.34,45a6,6,0,0,0,4.36,1.45H452l.93-6.61Zm-8.82-3.21a4.44,4.44,0,0,1-1.93,3.4,7.74,7.74,0,0,1-4.24,1.17,5.49,5.49,0,0,1-3.31-.86,2.43,2.43,0,0,1-.9-2.54l.19-1.23q.57-3.77,6.15-3.77h4.68Z"/><path class="cls-1" d="M334.45,38.82h-.31A19.33,19.33,0,0,1,330,44.94a8.72,8.72,0,0,1-6.21,2.22,9.68,9.68,0,0,1-4-.74,7.41,7.41,0,0,1-2.69-2,8.14,8.14,0,0,1-1.54-2.93,12.39,12.39,0,0,1-.5-3.53,24.18,24.18,0,0,1,.16-2.78c.1-.94.27-2.16.52-3.64l2.84-17h9l-3,18c-.09.58-.18,1.17-.28,1.79a13.2,13.2,0,0,0-.16,2.1,5.11,5.11,0,0,0,.19,1.3,3.53,3.53,0,0,0,.62,1.24,3.19,3.19,0,0,0,1.14.89,4,4,0,0,0,1.76.34,5.13,5.13,0,0,0,2.78-.74,8.49,8.49,0,0,0,2.22-2.16,30.22,30.22,0,0,0,1.64-2.57,10.22,10.22,0,0,0,1.27-3.61l2.78-16.62h9l-5.31,31.88h-9Z"/><path class="cls-1" d="M478.86,38.8h-.31a19.11,19.11,0,0,1-4.17,6.12,8.72,8.72,0,0,1-6.21,2.22,9.52,9.52,0,0,1-4-.74,7.3,7.3,0,0,1-2.69-2A8.14,8.14,0,0,1,460,41.46a12.32,12.32,0,0,1-.5-3.52,24.06,24.06,0,0,1,.16-2.78c.1-.95.28-2.16.52-3.65l2.84-17h9l-3,18c-.09.58-.18,1.18-.28,1.8a13.1,13.1,0,0,0-.15,2.1,5,5,0,0,0,.18,1.29,3.37,3.37,0,0,0,.62,1.24,3.09,3.09,0,0,0,1.14.89,4,4,0,0,0,1.76.34,5,5,0,0,0,2.78-.74,8.36,8.36,0,0,0,2.23-2.16c.45-.62,1-1.47,1.63-2.56a10.27,10.27,0,0,0,1.27-3.62l2.78-16.62h9L486.65,46.4h-9Z"/><path class="cls-1" d="M52.24,39.4l2.47-12.33c.2-.94.39-1.87.53-2.79a19,19,0,0,0,.21-2.82,7.65,7.65,0,0,0-1.88-5.53,6.63,6.63,0,0,0-5.4-2.11,9.36,9.36,0,0,0-6.5,2.23,17.61,17.61,0,0,0-4.21,5.56H37a8.12,8.12,0,0,0-2-5.68,6.81,6.81,0,0,0-5.5-2.11A9,9,0,0,0,23.33,16a16.88,16.88,0,0,0-4.27,5.65H18.7l1.42-7H1.43L0,21.61H10.08l-5,24.83h8.62L17,29.77a14.34,14.34,0,0,1,3-6.31,9.84,9.84,0,0,1,2.31-2.13,5.06,5.06,0,0,1,2.87-.83,2.56,2.56,0,0,1,2.25.9,4,4,0,0,1,.65,2.43,11.4,11.4,0,0,1-.12,1.6c-.08.58-.19,1.17-.31,1.73L23.74,46.44h8.69l3.38-16.67a13.63,13.63,0,0,1,1.11-3.4,13.19,13.19,0,0,1,1.85-3,10.69,10.69,0,0,1,2.35-2.07,4.9,4.9,0,0,1,2.72-.83,2.36,2.36,0,0,1,2.07.9,3.86,3.86,0,0,1,.73,2.32,11.93,11.93,0,0,1-.14,1.71c-.1.58-3,14.59-3,14.59,0,.17-.08.4-.13.71s0,.65,0,1a4.48,4.48,0,0,0,1.35,3.44,5.43,5.43,0,0,0,3.83,1.26h5.62l1.42-7Z"/><path class="cls-1" d="M267.17,18c-2.38-2.44-4.58-3.67-8.94-3.67a19.2,19.2,0,0,0-7.32,1.35,16.34,16.34,0,0,0-5.69,3.89,17.85,17.85,0,0,0-3.7,6.19A23.69,23.69,0,0,0,240.2,34q0,6.36,3.58,10t10.12,3.68A13.49,13.49,0,0,0,260,46.37a15.93,15.93,0,0,0,5.69-3.9,17.64,17.64,0,0,0,3.71-6.18,23.67,23.67,0,0,0,1.33-8.2Q270.76,21.72,267.17,18ZM261.7,28c-.06.47-.13.89-.21,1.27l-.81,4.82a8.85,8.85,0,0,1-2.44,5.12A5.38,5.38,0,0,1,254,41a4.14,4.14,0,0,1-3.38-1.39,5.63,5.63,0,0,1-1.45-4.22,10.36,10.36,0,0,1,.09-1.28c.06-.47.14-.88.21-1.26l.81-4.82a8.88,8.88,0,0,1,2.44-5.13,5.26,5.26,0,0,1,4.2-1.78,4.31,4.31,0,0,1,3.45,1.38,5.6,5.6,0,0,1,1.44,4.23A8.59,8.59,0,0,1,261.7,28Z"/><path class="cls-1" d="M154.11,15.48l-4,23.8-.25,1.47-1,5.69h-6c-2.17-1.9-2.12-5-1.84-7.16,0-.23.06-.44.09-.64.1-.65.24-1.62.49-2.9l2.24-13.22h-9.28l1.19-7Z"/><path class="cls-1" d="M150.9,10.32A5.68,5.68,0,0,1,147,9.24a3.56,3.56,0,0,1-1.14-2.69,8,8,0,0,1,.06-.84c0-.34.13-.89.25-1.63a4.5,4.5,0,0,1,1.67-3A6.71,6.71,0,0,1,152,0a5.66,5.66,0,0,1,3.92,1.08A3.56,3.56,0,0,1,157,3.77a7.62,7.62,0,0,1-.06.83c0,.35-.12.9-.24,1.64a4.58,4.58,0,0,1-1.67,3A6.75,6.75,0,0,1,150.9,10.32Z"/><polygon class="cls-1" points="159.33 39.28 158.12 46.45 130.57 46.45 131.78 39.28 159.33 39.28"/><path class="cls-1" d="M89.85,39.79l2.35-14q.85-6.06-2.32-9t-9.58-3a20.37,20.37,0,0,0-8.9,1.76A15,15,0,0,0,65.75,20L70,24.47a13.74,13.74,0,0,1,3.49-2.91,9.51,9.51,0,0,1,4.79-1.11c2.06,0,3.46.49,4.19,1.45s.6,2.41.32,4.3l-.27,1.61h-5q-7,0-10.94,2.41a10.41,10.41,0,0,0-5.23,7.36,8,8,0,0,0,2.12,7.06c1.61,1.67,4,2.5,7.06,2.5a12.84,12.84,0,0,0,6.5-1.6,9.57,9.57,0,0,0,4.13-4.76h.31A5.25,5.25,0,0,0,82.86,45a6,6,0,0,0,4.36,1.45h5.25l.93-6.61ZM81,36.58A4.44,4.44,0,0,1,79.1,40a7.74,7.74,0,0,1-4.24,1.17,5.49,5.49,0,0,1-3.31-.86,2.43,2.43,0,0,1-.9-2.54l.19-1.23c.38-2.51,2.44-3.77,6.15-3.77h4.68Z"/><path class="cls-1" d="M193.21,39.79l2.34-14c.58-4-.2-7-2.31-9s-5.31-3-9.58-3a20.37,20.37,0,0,0-8.9,1.76A15,15,0,0,0,169.11,20l4.23,4.45a13.74,13.74,0,0,1,3.49-2.91,9.51,9.51,0,0,1,4.79-1.11c2.06,0,3.46.49,4.18,1.45s.6,2.41.32,4.3l-.26,1.61h-5q-7,0-10.94,2.41a10.41,10.41,0,0,0-5.23,7.36,8,8,0,0,0,2.12,7.06q2.41,2.51,7,2.5a12.88,12.88,0,0,0,6.51-1.6,9.62,9.62,0,0,0,4.13-4.76h.31A5.25,5.25,0,0,0,186.22,45a6,6,0,0,0,4.36,1.45h5.25l.92-6.61Zm-8.82-3.21a4.42,4.42,0,0,1-1.94,3.4,7.68,7.68,0,0,1-4.23,1.17,5.49,5.49,0,0,1-3.31-.86,2.43,2.43,0,0,1-.9-2.54l.19-1.23q.57-3.77,6.15-3.77H185Z"/><path class="cls-1" d="M201.7,46.44,207,15.1h8.87l-.93,5.59h.43c2.7-5.59,7.41-6.32,10.8-6.32,6.75,0,9.31,4,8.47,9l-2.71,16.12h3.26L234,46.44h-5.91c-2.61,0-6-1.51-5.28-5.62.05-.3.08-.53.12-.69L225,27.38c.86-4.76-1.07-6.67-3.31-6.67a5.35,5.35,0,0,0-2.89,1.07,11.53,11.53,0,0,0-2.31,2.06,14.35,14.35,0,0,0-1.88,2.83,25.38,25.38,0,0,0-1.56,4.77l-2.52,15Z"/><path class="cls-1" d="M101.36,46.44l4.16-24.87H98.21l1.17-7h16.34l-1.6,9.65h.38a18.66,18.66,0,0,1,4.93-7.11,12.15,12.15,0,0,1,7.73-3.28h2.1l-1.61,9.77H122a9.92,9.92,0,0,0-4.06.69,6.93,6.93,0,0,0-2.63,2.1,13.64,13.64,0,0,0-1.42,2.29,11.13,11.13,0,0,0-1.11,3.21l-2.42,14.6Z"/></g></g></svg>